<svg version="1.1" xmlns="http://www.w3.org/2000/svg" xmlns:xlink="http://www.w3.org/1999/xlink" width="1560" height="804"><defs/><g><path fill="none" stroke="#02063B" paint-order="fill stroke markers" d=" M 20 423.8835076812236 L 21 424.966940707941 L 22 426.0488050706337 L 23 427.12902687693065 L 24 428.2075323466489 L 25 429.28424781683304 L 26 430.3590997467862 L 27 431.43201472309323 L 28 432.50291946463466 L 29 433.571740827592 L 30 434.6384058104436 L 31 435.7028415589505 L 32 436.7649753711327 L 33 437.8247347022346 L 34 438.8820471696799 L 35 439.93684055801543 L 36 440.98904282384365 L 37 442.03858210074293 L 38 443.0853867041766 L 39 444.12938513638863 L 40 445.1705060912873 L 41 446.20867845931514 L 42 447.24383133230623 L 43 448.2758940083288 L 44 449.30479599651477 L 45 450.3304670218738 L 46 451.35283703009355 L 47 452.3718361923243 L 48 453.3873949099483 L 49 454.3994438193334 L 50 455.4079137965708 L 51 456.4127359621963 L 52 457.41384168589445 L 53 458.41116259118655 L 54 459.40463056010054 L 55 460.39417773782355 L 56 461.37973653733667 L 57 462.36123964403083 L 58 463.3386200203048 L 59 464.3118109101438 L 60 465.2807458436788 L 61 466.24535864172685 L 62 467.205583420311 L 63 468.16135459516 L 64 469.1126068861882 L 65 470.059275321954 L 66 471.00129524409743 L 67 471.9386023117566 L 68 472.8711325059619 L 69 473.7988221340089 L 70 474.7216078338084 L 71 475.6394265782141 L 72 476.55221567932773 L 73 477.4599127927803 L 74 478.36245592199054 L 75 479.2597834223991 L 76 480.15183400567923 L 77 481.0385467439225 L 78 481.9198610738006 L 79 482.79571680070154 L 80 483.66605410284114 L 81 484.530813535349 L 82 485.38993603432846 L 83 486.24336292089083 L 84 487.0910359051632 L 85 487.9328970902698 L 86 488.7688889762861 L 87 489.5989544641665 L 88 490.423036859644 L 89 491.24107987710244 L 90 492.0530276434211 L 91 492.8588247017907 L 92 493.6584160155011 L 93 494.4517469717006 L 94 495.2387633851258 L 95 496.0194115018027 L 96 496.79363800271807 L 97 497.56139000746106 L 98 498.32261507783517 L 99 499.0772612214398 L 100 499.82527689522135 L 101 500.5666110089935 L 102 501.3012129289271 L 103 502.0290324810081 L 104 502.75001995446473 L 105 503.4641261051628 L 106 504.17130215896884 L 107 504.87149981508185 L 108 505.564671249332 L 109 506.2507691174471 L 110 506.92974655828624 L 111 507.6015571970406 L 112 508.2661551484009 L 113 508.92349501969113 L 114 509.5735319139691 L 115 510.2162214330929 L 116 510.85151968075365 L 117 511.47938326547313 L 118 512.0997693035678 L 119 512.7126354220775 L 120 513.3179397616602 L 121 513.9156409794502 L 122 514.5056982518826 L 123 515.088071277481 L 124 515.6627202796107 L 125 516.2296060091948 L 126 516.7886897473958 L 127 517.3399333082593 L 128 517.8832990413229 L 129 518.4187498341869 L 130 518.94624911505 L 131 519.4657608552066 L 132 519.9772495715076 L 133 520.4806803287846 L 134 520.976018742235 L 135 521.4632309797713 L 136 521.9422837643316 L 137 522.4131443761521 L 138 522.8757806550027 L 139 523.330161002383 L 140 523.7762543836803 L 141 524.21403033029 L 142 524.643458941696 L 143 525.0645108875134 L 144 525.4771574094914 L 145 525.8813703234775 L 146 526.2771220213433 L 147 526.6643854728691 L 148 527.0431342275904 L 149 527.413342416605 L 150 527.7749847543396 L 151 528.1280365402762 L 152 528.4724736606402 L 153 528.8082725900467 L 154 529.1354103931075 L 155 529.4538647259976 L 156 529.7636138379816 L 157 530.0646365728985 L 158 530.3569123706077 L 159 530.6404212683925 L 160 530.9151439023238 L 161 531.1810615085832 L 162 531.4381559247435 L 163 531.68640959101 L 164 531.92580555142 L 165 532.1563274550002 L 166 532.3779595568842 L 167 532.5906867193872 L 168 532.7944944130406 L 169 532.9893687175838 L 170 533.1752963229155 L 171 533.3522645300022 L 172 533.5202612517462 L 173 533.6792750138105 L 174 533.8292949554032 L 175 533.9703108300185 L 176 534.1023130061376 L 177 534.2252924678852 L 178 534.3392408156467 L 179 534.4441502666407 L 180 534.5400136554514 L 181 534.6268244345176 L 182 534.70457667458 L 183 534.7732650650864 L 184 534.8328849145539 L 185 534.8834321508898 L 186 534.9249033216693 L 187 534.9572955943719 L 188 534.9806067565743 L 189 534.9948352161019 L 190 534.9999800011374 L 191 534.9960407602867 L 192 534.9830177626042 L 193 534.9609118975727 L 194 534.9297246750441 L 195 534.8894582251356 L 196 534.8401152980841 L 197 534.781699264059 L 198 534.7142141129309 L 199 534.6376644540005 L 200 534.5520555156827 L 201 534.4573931451498 L 202 534.3536838079324 L 203 534.2409345874773 L 204 534.1191531846644 L 205 533.9883479172797 L 206 533.8485277194483 L 207 533.6997021410234 L 208 533.5418813469346 L 209 533.3750761164929 L 210 533.1992978426554 L 211 533.014558531246 L 212 532.8208708001368 L 213 532.6182478783849 L 214 532.4067036053299 L 215 532.1862524296479 L 216 531.9569094083652 L 217 531.7186902058296 L 218 531.4716110926405 L 219 531.2156889445378 L 220 530.950941241249 L 221 530.6773860652957 L 222 530.3950421007579 L 223 530.1039286319987 L 224 529.8040655423465 L 225 529.4954733127372 L 226 529.1781730203154 L 227 528.8521863369946 L 228 528.5175355279772 L 229 528.1742434502336 L 230 527.8223335509412 L 231 527.4618298658828 L 232 527.0927570178051 L 233 526.7151402147367 L 234 526.3290052482665 L 235 525.9343784917821 L 236 525.5312868986688 L 237 525.1197580004678 L 238 524.6998199049966 L 239 524.2715012944291 L 240 523.8348314233361 L 241 523.3898401166877 L 242 522.9365577678157 L 243 522.4750153363383 L 244 522.0052443460453 L 245 521.5272768827446 L 246 521.0411455920714 L 247 520.5468836772579 L 248 520.0445248968658 L 249 519.5341035624805 L 250 519.0156545363675 L 251 518.4892132290912 L 252 517.9548155970966 L 253 517.4124981402534 L 254 516.8622978993627 L 255 516.3042524536274 L 256 515.7383999180854 L 257 515.1647789410061 L 258 514.5834287012514 L 259 513.9943889055985 L 260 513.3976997860293 L 261 512.7934020969815 L 262 512.1815371125654 L 263 511.5621466237448 L 264 510.9352729354829 L 265 510.3009588638522 L 266 509.6592477331109 L 267 509.0101833727429 L 268 508.3538101144653 L 269 507.6901727891996 L 270 507.01931672400997 L 271 506.3412877390076 L 272 505.6561321442208 L 273 504.9638967364324 L 274 504.2646287959829 L 275 503.5583760835418 L 276 502.8451868368451 L 277 502.12510976740055 L 278 501.3981940571611 L 279 500.6644893551652 L 280 499.92404577414607 L 281 499.17691388710864 L 282 498.4231447238757 L 283 497.6627897676022 L 284 496.89590095125925 L 285 496.12253065408675 L 286 495.3427316980158 L 287 494.5565573440614 L 288 493.76406128868393 L 289 492.9652976601224 L 290 492.16032101469676 L 291 491.3491863330821 L 292 490.5319490165533 L 293 489.7086648832009 L 294 488.87939016411906 L 295 488.0441814995644 L 296 487.20309593508784 L 297 486.3561909176382 L 298 485.5035242916384 L 299 484.64515429503496 L 300 483.7811395553198 L 301 482.9115390855264 L 302 482.03641228019876 L 303 481.1558189113351 L 304 480.26981912430495 L 305 479.37847343374153 L 306 478.4818427194083 L 307 477.5799882220409 L 308 476.6729715391645 L 309 475.7608546208862 L 310 474.8436997656644 L 311 473.92156961605303 L 312 472.99452715442374 L 313 472.06263569866354 L 314 471.1259588978505 L 315 470.1845607279063 L 316 469.2385054872267 L 317 468.28785779228974 L 318 467.3326825732426 L 319 466.3730450694667 L 320 465.4090108251215 L 321 464.44064568466854 L 322 463.4680157883732 L 323 462.491187567788 L 324 461.5102277412152 L 325 460.5252033091494 L 326 459.5361815497017 L 327 458.5432300140047 L 328 457.5464165215982 L 329 456.5458091557975 L 330 455.54147625904307 L 331 454.5334864282326 L 332 453.52190851003604 L 333 452.50681159619313 L 334 451.48826501879415 L 335 450.466338345545 L 336 449.44110137501514 L 337 448.41262413187064 L 338 447.38097686209113 L 339 446.34623002817233 L 340 445.308454304313 L 341 444.26772057158786 L 342 443.22409991310684 L 343 442.1776636091592 L 344 441.12848313234593 L 345 440.07663014269724 L 346 439.02217648277883 L 347 437.9651941727845 L 348 436.90575540561736 L 349 435.84393254195885 L 350 434.77979810532645 L 351 433.7134247771204 L 352 432.6448853916593 L 353 431.5742529312054 L 354 430.5016005209803 L 355 429.4270014241697 L 356 428.3505290369203 L 357 427.27225688332595 L 358 426.1922586104065 L 359 425.11060798307716 L 360 424.02737887911087 L 361 422.94264528409167 L 362 421.8564812863621 L 363 420.76896107196234 L 364 419.68015891956355 L 365 418.5901491953946 L 366 417.49900634816237 L 367 416.40680490396744 L 368 415.31361946121336 L 369 414.21952468551194 L 370 413.124595304583 L 371 412.02890610315103 L 372 410.9325319178367 L 373 409.8355476320459 L 374 408.738028170855 L 375 407.6400484958931 L 376 406.5416836002227 L 377 405.443008503217 L 378 404.3440982454363 L 379 403.2450278835027 L 380 402.1458724849734 L 381 401.0467071232138 L 382 399.9476068722698 L 383 398.84864680174013 L 384 397.749901971649 L 385 396.6514474273197 L 386 395.55335819424846 L 387 394.4557092729806 L 388 393.3585756339876 L 389 392.2620322125467 L 390 391.1661539036229 L 391 390.071015556753 L 392 388.97669197093416 L 393 387.883257889514 L 394 386.7907879950867 L 395 385.6993569043912 L 396 384.60903916321524 L 397 383.5199092413039 L 398 382.43204152727264 L 399 381.34551032352744 L 400 380.2603898411889 L 401 379.17675419502433 L 402 378.094677398385 L 403 377.0142333581516 L 404 375.93549586968567 L 405 374.8585386117899 L 406 373.78343514167545 L 407 372.7102588899378 L 408 371.6390831555419 L 409 370.56998110081526 L 410 369.5030257464511 L 411 368.43828996652087 L 412 367.3758464834972 L 413 366.3157678632864 L 414 365.2581265102726 L 415 364.202994662372 L 416 363.1504443860995 L 417 362.10054757164596 L 418 361.05337592796826 L 419 360.00900097789173 L 420 358.9674940532245 L 421 357.9289262898862 L 422 356.89336862304873 L 423 355.8608917822914 L 424 354.8315662867704 L 425 353.80546244040187 L 426 352.7826503270603 L 427 351.7631998057916 L 428 350.74718050604184 L 429 349.7346618229013 L 430 348.7257129123646 L 431 347.72040268660794 L 432 346.71879980928145 L 433 345.72097269082 L 434 344.7269894837705 L 435 343.736918078137 L 436 342.7508260967438 L 437 341.76878089061665 L 438 340.7908495343828 L 439 339.8170988216895 L 440 338.84759526064215 L 441 337.8824050692615 L 442 336.92159417096116 L 443 335.9652281900447 L 444 335.0133724472237 L 445 334.06609195515614 L 446 333.12345141400584 L 447 332.18551520702385 L 448 331.2523473961504 L 449 330.3240117176398 L 450 329.4005715777071 L 451 328.4820900481975 L 452 327.56862986227804 L 453 326.6602534101536 L 454 325.7570227348049 L 455 324.8589995277513 L 456 323.966245124837 L 457 323.0788205020418 L 458 322.19678627131674 L 459 321.3202026764435 L 460 320.44912958892036 L 461 319.5836265038727 L 462 318.7237525359892 L 463 317.8695664154847 L 464 317.0211264840884 L 465 316.17849069105955 L 466 315.3417165892288 L 467 314.51086133106804 L 468 313.6859816647863 L 469 312.8671339304541 L 470 312.0543740561551 L 471 311.24775755416636 L 472 310.4473395171667 L 473 309.65317461447387 L 474 308.86531708831063 L 475 308.08382075009973 L 476 307.30873897678885 L 477 306.54012470720465 L 478 305.7780304384372 L 479 305.0225082222542 L 480 304.27360966154583 L 481 303.5313859068004 L 482 302.79588765261036 L 483 302.06716513421037 L 484 301.34526812404556 L 485 300.63024592837246 L 486 299.922147383891 L 487 299.2210208544095 L 488 298.52691422754066 L 489 297.8398749114312 L 490 297.15994983152365 L 491 296.4871854273517 L 492 295.82162764936766 L 493 295.1633219558047 L 494 294.5123133095715 L 495 293.86864617518137 L 496 293.23236451571563 L 497 292.60351178982023 L 498 291.98213094873813 L 499 291.36826443337526 L 500 290.76195417140195 L 501 290.1632415743892 L 502 289.5721675349802 L 503 288.9887724240975 L 504 288.41309608818517 L 505 287.84517784648784 L 506 287.28505648836483 L 507 286.7327702706408 L 508 286.1883569149927 L 509 285.6518536053738 L 510 285.12329698547336 L 511 284.6027231562142 L 512 284.09016767328706 L 513 283.58566554472173 L 514 283.0892512284963 L 515 282.6009586301835 L 516 282.12082110063506 L 517 281.6488714337036 L 518 281.1851418640029 L 519 280.7296640647063 L 520 280.2824691453833 L 521 279.8435876498747 L 522 279.41304955420645 L 523 278.9908842645427 L 524 278.57712061517645 L 525 278.1717868665608 L 526 277.77491070337874 L 527 277.38651923265195 L 528 277.0066389818893 L 529 276.6352958972755 L 530 276.2725153418986 L 531 275.9183220940175 L 532 275.57274034536994 L 533 275.23579369952 L 534 274.90750517024605 L 535 274.5878971799687 L 536 274.2769915582194 L 537 273.9748095401497 L 538 273.6813717650805 L 539 273.3966982750926 L 540 273.1208085136577 L 541 272.85372132431064 L 542 272.59545494936174 L 543 272.34602702865163 L 544 272.105454598346 L 545 271.873754089772 L 546 271.65094132829597 L 547 271.43703153224277 L 548 271.2320393118561 L 549 271.0359786683008 L 550 270.84886299270636 L 551 270.67070506525243 L 552 270.50151705429596 L 553 270.34131051554004 L 554 270.19009639124437 L 555 270.0478850094785 L 556 269.91468608341575 L 557 269.7905087106702 L 558 269.67536137267535 L 559 269.5692519341045 L 560 269.4721876423337 L 561 269.3841751269471 L 562 269.3052203992837 L 563 269.2353288520269 L 564 269.17450525883623 L 565 269.12275377402136 L 566 269.0800779322582 L 567 269.0464806483475 L 568 269.0219642170159 L 569 269.00653031275925 L 570 269.0001799897278 L 571 269.00291368165495 L 572 269.01473120182663 L 573 269.0356317430951 L 574 269.0656138779333 L 575 269.1046755585328 L 576 269.1528141169433 L 577 269.2100262652554 L 578 269.27630809582456 L 579 269.35165508153824 L 580 269.4360620761253 L 581 269.5295233145073 L 582 269.6320324131922 L 583 269.74358237071044 L 584 269.8641655680932 L 585 269.99377376939276 L 586 270.132398122245 L 587 270.2800291584739 L 588 270.43665679473844 L 589 270.60227033322127 L 590 270.7768584623592 L 591 270.960409257616 L 592 271.15291018229675 L 593 271.3543480884041 L 594 271.5647092175363 L 595 271.783979201827 L 596 272.0121430649264 L 597 272.2491852230245 L 598 272.49508948591495 L 599 272.7498390581014 L 600 273.0134165399443 L 601 273.2858039288495 L 602 273.5669826204976 L 603 273.85693341011506 L 604 274.15563649378555 L 605 274.46307146980257 L 606 274.77921734006316 L 607 275.1040525115019 L 608 275.43755479756567 L 609 275.7797014197294 L 610 276.13046900905135 L 611 276.4898336077697 L 612 276.8577706709383 L 613 277.23425506810383 L 614 277.6192610850218 L 615 278.0127624254127 L 616 278.4147322127587 L 617 278.8251429921386 L 618 279.24396673210356 L 619 279.6711748265913 L 620 280.10673809688035 L 621 280.55062679358264 L 622 281.00281059867535 L 623 281.46325862757203 L 624 281.9319394312317 L 625 282.40882099830714 L 626 282.893870757331 L 627 283.3870555789406 L 628 283.8883417781408 L 629 284.3976951166046 L 630 284.9150808050116 L 631 285.4404635054242 L 632 285.97380733370153 L 633 286.5150758619495 L 634 287.0642321210099 L 635 287.62123860298493 L 636 288.18605726379883 L 637 288.75864952579656 L 638 289.3389762803789 L 639 289.92699789067336 L 640 290.5226741942411 L 641 291.12596450582083 L 642 291.736827620107 L 643 292.3552218145645 L 644 292.98110485227807 L 645 293.6144339848375 L 646 294.2551659552571 L 647 294.90325700093007 L 648 295.55866285661807 L 649 296.22133875747403 L 650 296.89123944209996 L 651 297.56831915563805 L 652 298.25253165289604 L 653 298.94383020150576 L 654 299.64216758511503 L 655 300.3474961066122 L 656 301.0597675913845 L 657 301.77893339060813 L 658 302.50494438457076 L 659 303.23775098602687 L 660 303.97730314358455 L 661 304.72355034512384 L 662 305.47644162124675 L 663 306.2359255487589 L 664 307.0019502541814 L 665 307.7744634172938 L 666 308.5534122747081 L 667 309.3387436234719 L 668 310.13040382470285 L 669 310.92833880725163 L 670 311.7324940713955 L 671 312.5428146925606 L 672 313.3592453250732 L 673 314.1817302059398 L 674 315.01021315865626 L 675 315.8446375970442 L 676 316.6849465291161 L 677 317.53108256096783 L 678 318.38298790069905 L 679 319.2406043623597 L 680 320.1038733699251 L 681 320.972735961296 L 682 321.8471327923262 L 683 322.72700414087535 L 684 323.61228991088853 L 685 324.50292963650077 L 686 325.39886248616665 L 687 326.30002726681516 L 688 327.20636242802965 L 689 328.1178060662516 L 690 329.0342959290082 L 691 329.955769419165 L 692 330.88216359920114 L 693 331.8134151955077 L 694 332.7494606027095 L 695 333.6902358880098 L 696 334.63567679555655 L 697 335.58571875083095 L 698 336.5402968650586 L 699 337.49934593964105 L 700 338.4628004706089 L 701 339.4305946530957 L 702 340.4026623858329 L 703 341.3789372756645 L 704 342.3593526420811 L 705 343.34384152177535 L 706 344.33233667321474 L 707 345.32477058123476 L 708 346.32107546164985 L 709 347.3211832658834 L 710 348.3250256856157 L 711 349.3325341574488 L 712 350.34363986759007 L 713 351.3582737565523 L 714 352.37636652387016 L 715 353.39784863283325 L 716 354.4226503152363 L 717 355.450701576144 L 718 356.48193219867164 L 719 357.5162717487808 L 720 358.5536495800908 L 721 359.59399483870317 L 722 360.63723646804124 L 723 361.68330321370365 L 724 362.7321236283308 L 725 363.78362607648506 L 726 364.83773873954283 L 727 365.8943896206009 L 728 366.9535065493932 L 729 368.0150171872198 L 730 369.07884903188875 L 731 370.1449294226672 L 732 371.21318554524447 L 733 372.28354443670514 L 734 373.35593299051294 L 735 374.43027796150375 L 736 375.5065059708878 L 737 376.58454351126255 L 738 377.66431695163254 L 739 378.7457525424387 L 740 379.8287764205954 L 741 380.9133146145355 L 742 381.99929304926286 L 743 383.08663755141134 L 744 384.1752738543109 L 745 385.26512760306053 L 746 386.35612435960667 L 747 387.44818960782663 L 748 388.54124875861936 L 749 389.63522715499886 L 750 390.7300500771942 L 751 391.82564274775206 L 752 392.9219303366449 L 753 394.01883796638157 L 754 395.1162907171212 L 755 396.2142136317911 L 756 397.3125317212057 L 757 398.4111699691887 L 758 399.5100533376964 L 759 400.60910677194346 L 760 401.7082552055289 L 761 402.8074235655629 L 762 403.90653677779477 L 763 405.00551977174064 L 764 406.10429748581055 L 765 407.2027948724351 L 766 408.300936903192 L 767 409.3986485739299 L 768 410.49585490989114 L 769 411.59248097083344 L 770 412.6884518561475 L 771 413.78369270997337 L 772 414.8781287263126 L 773 415.9716851541383 L 774 417.06428730250013 L 775 418.15586054562607 L 776 419.246330328019 L 777 420.3356221695496 L 778 421.4236616705429 L 779 422.5103745168598 L 780 423.5956864849733 L 781 424.6795234470375 L 782 425.7618113759511 L 783 426.84247635041265 L 784 427.9214445599707 L 785 428.99864231006427 L 786 430.0739960270562 L 787 431.14743226325874 L 788 432.21887770194996 L 789 433.28825916238145 L 790 434.355503604776 L 791 435.4205381353172 L 792 436.48329001112774 L 793 437.54368664523747 L 794 438.60165561154173 L 795 439.65712464974797 L 796 440.71002167031116 L 797 441.7602747593571 L 798 442.80781218359505 L 799 443.85256239521686 L 800 444.89445403678326 L 801 445.9334159460983 L 802 446.96937716106953 L 803 448.00226692455493 L 804 449.0320146891952 L 805 450.0585501222328 L 806 451.08180311031555 L 807 452.10170376428545 L 808 453.11818242395174 L 809 454.1311696628495 L 810 455.1405962929814 L 811 456.14639336954235 L 812 457.14849219562996 L 813 458.14682432693553 L 814 459.1413215764195 L 815 460.1319160189679 L 816 461.1185399960327 L 817 462.1011261202524 L 818 463.0796072800543 L 819 464.05391664423917 L 820 465.0239876665452 L 821 465.98975409019357 L 822 466.95114995241323 L 823 467.9081095889471 L 824 468.86056763853657 L 825 469.80845904738527 L 826 470.7517190736031 L 827 471.69028329162796 L 828 472.62408759662566 L 829 473.55306820886864 L 830 474.47716167809233 L 831 475.3963048878287 L 832 476.31043505971695 L 833 477.21948975779173 L 834 478.12340689274754 L 835 479.0221247261792 L 836 479.9155818747986 L 837 480.80371731462776 L 838 481.68647038516644 L 839 482.56378079353544 L 840 483.43558861859424 L 841 484.3018343150343 L 842 485.1624587174459 L 843 486.0174030443587 L 844 486.86660890225727 L 845 487.7100182895691 L 846 488.54757360062604 L 847 489.37921762959894 L 848 490.20489357440493 L 849 491.0245450405871 L 850 491.83811604516586 L 851 492.6455510204633 L 852 493.4467948178981 L 853 494.24179271175234 L 854 495.0304904029091 L 855 495.81283402256145 L 856 496.5887701358918 L 857 497.3582457457211 L 858 498.1212082961289 L 859 498.8776056760431 L 860 499.62738622279915 L 861 500.3704987256679 L 862 501.10689242935473 L 863 501.836517037465 L 864 502.55932271593997 L 865 503.2752600964601 L 866 503.98428027981737 L 867 504.686334839255 L 868 505.3813758237746 L 869 506.0693557614121 L 870 506.7502276624795 L 871 507.42394502277455 L 872 508.09046182675684 L 873 508.749732550691 L 874 509.4017121657559 L 875 510.0463561411198 L 876 510.6836204469826 L 877 511.3134615575824 L 878 511.9358364541688 L 879 512.5507026279408 L 880 513.1580180829504 L 881 513.7577413389712 L 882 514.3498314343307 L 883 514.934247928709 L 884 515.5109509059005 L 885 516.07990097654 L 886 516.6410592807932 L 887 517.1943874910111 L 888 517.7398478143476 L 889 518.2774029953406 L 890 518.807016318457 L 891 519.3286516106001 L 892 519.8422732435804 L 893 520.3478461365488 L 894 520.8453357583932 L 895 521.3347081300961 L 896 521.8159298270567 L 897 522.2889679813724 L 898 522.7537902840847 L 899 523.2103649873857 L 900 523.6586609067863 L 901 524.0986474232461 L 902 524.5302944852654 L 903 524.9535726109365 L 904 525.3684528899586 L 905 525.7749069856118 L 906 526.1729071366923 L 907 526.562426159409 L 908 526.9434374492402 L 909 527.3159149827499 L 910 527.6798333193665 L 911 528.0351676031191 L 912 528.3818935643365 L 913 528.7199875213036 L 914 529.0494263818796 L 915 529.3701876450752 L 916 529.6822494025894 L 917 529.9855903403053 L 918 530.2801897397468 L 919 530.566027479493 L 920 530.8430840365527 L 921 531.1113404876982 L 922 531.3707785107568 L 923 531.6213803858639 L 924 531.8631289966712 L 925 532.0960078315175 L 926 532.3200009845553 L 927 532.5350931568382 L 928 532.7412696573651 L 929 532.9385164040834 L 930 533.126819924852 L 931 533.30616735836 L 932 533.476546455006 L 933 533.637945577735 L 934 533.7903537028321 L 935 533.933760420677 L 936 534.0681559364533 L 937 534.1935310708188 L 938 534.309877260532 L 939 534.4171865590365 L 940 534.5154516370048 L 941 534.6046657828381 L 942 534.6848229031248 L 943 534.7559175230567 L 944 534.8179447868034 L 945 534.8709004578436 L 946 534.9147809192541 L 947 534.9495831739573 L 948 534.9753048449262 L 949 534.9919441753459 L 950 534.9995000287342 L 951 534.9979718890191 L 952 534.9873598605741 L 953 534.9676646682107 L 954 534.9388876571295 L 955 534.9010307928279 L 956 534.854096660966 L 957 534.7980884671898 L 958 534.7330100369126 L 959 534.6588658150533 L 960 534.5756608657334 L 961 534.4834008719306 L 962 534.3820921350905 L 963 534.2717415746968 L 964 534.1523567277985 L 965 534.0239457484947 L 966 533.8865174073784 L 967 533.7400810909365 L 968 533.5846468009098 L 969 533.4202251536087 L 970 533.2468273791894 L 971 533.0644653208855 L 972 532.8731514342 L 973 532.6728987860548 L 974 532.4637210538971 L 975 532.245632524766 L 976 532.0186480943171 L 977 531.7827832658039 L 978 531.5380541490199 L 979 531.2844774591979 L 980 531.0220705158684 L 981 530.7508512416769 L 982 530.4708381611592 L 983 530.1820503994766 L 984 529.8845076811094 L 985 529.5782303285102 L 986 529.2632392607151 L 987 528.9395559919153 L 988 528.607202629988 L 989 528.2662018749857 L 990 527.9165770175862 L 991 527.5583519375017 L 992 527.191551101848 L 993 526.816199563473 L 994 526.4323229592462 L 995 526.0399475083068 L 996 525.6391000102733 L 997 525.2298078434137 L 998 524.8120989627744 L 999 524.3860018982716 L 1000 523.9515457527425 L 1001 523.5087601999575 L 1002 523.0576754825936 L 1003 522.5983224101685 L 1004 522.1307323569365 L 1005 521.6549372597459 L 1006 521.1709696158567 L 1007 520.6788624807223 L 1008 520.1786494657305 L 1009 519.6703647359093 L 1010 519.1540430075918 L 1011 518.6297195460461 L 1012 518.0974301630663 L 1013 517.5572112145264 L 1014 517.0090995978977 L 1015 516.4531327497278 L 1016 515.8893486430845 L 1017 515.3177857849619 L 1018 514.7384832136496 L 1019 514.1514804960678 L 1020 513.5568177250639 L 1021 512.9545355166737 L 1022 512.3446750073484 L 1023 511.7272778511445 L 1024 511.10238621687836 L 1025 510.47004278524656 L 1026 509.83029074591036 L 1027 509.18317379454624 L 1028 508.5287361298611 L 1029 507.8670224505735 L 1030 507.198077952361 L 1031 506.5219483247729 L 1032 505.8386797481095 L 1033 505.1483188902684 L 1034 504.45091290355674 L 1035 503.7465094214707 L 1036 503.0351565554418 L 1037 502.3169028915518 L 1038 501.591797487213 L 1039 500.85988986781825 L 1040 500.12123002335824 L 1041 499.37586840500705 L 1042 498.6238559216764 L 1043 497.86524393653826 L 1044 497.1000842635174 L 1045 496.3284291637513 L 1046 495.55033134202165 L 1047 494.76584394315415 L 1048 493.9750205483887 L 1049 493.17791517171986 L 1050 492.3745822562073 L 1051 491.56507667025807 L 1052 490.7494537038781 L 1053 489.9277690648963 L 1054 489.1000788751598 L 1055 488.2664396667003 L 1056 487.4269083778736 L 1057 486.5815423494695 L 1058 485.7303993207972 L 1059 484.8735374257395 L 1060 484.01101518878386 L 1061 483.1428915210242 L 1062 482.26922571613767 L 1063 481.39007744633466 L 1064 480.50550675828305 L 1065 479.6155740690071 L 1066 478.7203401617613 L 1067 477.8198661818779 L 1068 476.9142136325912 L 1069 476.003444370837 L 1070 475.08762060302706 L 1071 474.16680488080107 L 1072 473.2410600967537 L 1073 472.31044948013977 L 1074 471.3750365925547 L 1075 470.43488532359356 L 1076 469.49005988648764 L 1077 468.54062481371824 L 1078 467.5866449526092 L 1079 466.62818546089767 L 1080 465.66531180228435 L 1081 464.6980897419611 L 1082 463.7265853421202 L 1083 462.7508649574415 L 1084 461.77099523056097 L 1085 460.7870430875184 L 1086 459.79907573318644 L 1087 458.807160646681 L 1088 457.8113655767514 L 1089 456.81175853715365 L 1090 455.8084078020049 L 1091 454.8013819011204 L 1092 453.79074961533274 L 1093 452.7765799717937 L 1094 451.7589422392607 L 1095 450.73790592336434 L 1096 449.7135407618619 L 1097 448.685916719874 L 1098 447.65510398510594 L 1099 446.62117296305377 L 1100 445.58419427219525 L 1101 444.54423873916767 L 1102 443.50137739392864 L 1103 442.45568146490587 L 1104 441.40722237413183 L 1105 440.35607173236554 L 1106 439.3023013342015 L 1107 438.24598315316604 L 1108 437.18718933680196 L 1109 436.1259922017397 L 1110 435.062464228759 L 1111 433.99667805783787 L 1112 432.9287064831916 L 1113 431.85862244830054 L 1114 430.7864990409278 L 1115 429.7124094881285 L 1116 428.6364271512464 L 1117 427.5586255209046 L 1118 426.4790782119858 L 1119 425.39785895860393 L 1120 424.31504160906854 L 1121 423.2307001208407 L 1122 422.1449085554812 L 1123 421.0577410735933 L 1124 419.9692719297561 L 1125 418.8795754674533 L 1126 417.78872611399606 L 1127 416.6967983754389 L 1128 415.603866831491 L 1129 414.5100061304224 L 1130 413.41529098396603 L 1131 412.3197961622135 L 1132 411.22359648850926 L 1133 410.12676683433995 L 1134 409.02938211422025 L 1135 407.9315172805766 L 1136 406.8332473186273 L 1137 405.734647241262 L 1138 404.6357920839169 L 1139 403.53675689945055 L 1140 402.43761675301766 L 1141 401.3384467169418 L 1142 400.2393218655882 L 1143 399.14031727023547 L 1144 398.0415079939495 L 1145 396.942969086455 L 1146 395.84477557901033 L 1147 394.74700247928286 L 1148 393.6497247662256 L 1149 392.5530173849561 L 1150 391.45695524163773 L 1151 390.361613198364 L 1152 389.2670660680442 L 1153 388.17338860929453 L 1154 387.08065552133195 L 1155 385.9889414388718 L 1156 384.89832092703045 L 1157 383.8088684762321 L 1158 382.720658497122 L 1159 381.63376531548266 L 1160 380.54826316715827 L 1161 379.46422619298426 L 1162 378.381728433723 L 1163 377.3008438250073 L 1164 376.22164619228977 L 1165 375.1442092458018 L 1166 374.06860657551744 L 1167 372.9949116461282 L 1168 371.92319779202506 L 1169 370.85353821228966 L 1170 369.7860059656947 L 1171 368.7206739657138 L 1172 367.65761497554234 L 1173 366.5969016031261 L 1174 365.5386062962035 L 1175 364.4828013373564 L 1176 363.4295588390737 L 1177 362.3789507388258 L 1178 361.3310487941509 L 1179 360.2859245777548 L 1180 359.2436494726213 L 1181 358.20429466713733 L 1182 357.1679311502305 L 1183 356.1346297065206 L 1184 355.10446091148486 L 1185 354.07749512663764 L 1186 353.05380249472444 L 1187 352.0334529349318 L 1188 351.0165161381108 L 1189 350.0030615620176 L 1190 348.9931584265694 L 1191 347.9868757091166 L 1192 346.98428213973165 L 1193 345.9854461965143 L 1194 344.9904361009157 L 1195 343.999319813077 L 1196 343.0121650271891 L 1197 342.0290391668683 L 1198 341.05000938055144 L 1199 340.0751425369097 L 1200 339.10450522028106 L 1201 338.1381637261233 L 1202 337.17618405648483 L 1203 336.21863191549755 L 1204 335.26557270488877 L 1205 334.31707151951457 L 1206 333.37319314291324 L 1207 332.434002042881 L 1208 331.4995623670688 L 1209 330.56993793860045 L 1210 329.6451922517138 L 1211 328.7253884674241 L 1212 327.8105894092099 L 1213 326.900857558722 L 1214 325.9962550515162 L 1215 325.0968436728094 L 1216 324.20268485325937 L 1217 323.3138396647688 L 1218 322.4303688163146 L 1219 321.552332649801 L 1220 320.6797911359382 L 1221 319.8128038701463 L 1222 318.9514300684854 L 1223 318.0957285636101 L 1224 317.245757800752 L 1225 316.4015758337274 L 1226 315.5632403209723 L 1227 314.73080852160433 L 1228 313.90433729151164 L 1229 313.08388307947047 L 1230 312.2695019232882 L 1231 311.46124944597705 L 1232 310.6591808519545 L 1233 309.86335092327295 L 1234 309.073814015878 L 1235 308.29062405589553 L 1236 307.5138345359497 L 1237 306.7434985115076 L 1238 305.97966859725676 L 1239 305.2223969635112 L 1240 304.47173533264805 L 1241 303.7277349755749 L 1242 302.990446708228 L 1243 302.2599208881012 L 1244 301.5362074108073 L 1245 300.81935570666917 L 1246 300.109414737344 L 1247 299.4064329924793 L 1248 298.7104584864008 L 1249 298.02153875483316 L 1250 297.33972085165306 L 1251 296.665051345676 L 1252 295.99757631747445 L 1253 295.3373413562316 L 1254 294.6843915566269 L 1255 294.0387715157565 L 1256 293.4005253300868 L 1257 292.76969659244287 L 1258 292.1463283890313 L 1259 291.5304632964967 L 1260 290.9221433790142 L 1261 290.321410185416 L 1262 289.72830474635424 L 1263 289.1428675714977 L 1264 288.5651386467655 L 1265 287.99515743159617 L 1266 287.43296285625195 L 1267 286.87859331916025 L 1268 286.33208668429086 L 1269 285.79348027856986 L 1270 285.26281088933 L 1271 284.7401147617983 L 1272 284.2254275966205 L 1273 283.71878454742233 L 1274 283.2202202184088 L 1275 282.72976866200065 L 1276 282.24746337650845 L 1277 281.7733373038446 L 1278 281.30742282727334 L 1279 280.84975176919954 L 1280 280.40035538899417 L 1281 279.95926438086 L 1282 279.5265088717349 L 1283 279.10211841923416 L 1284 278.68612200963184 L 1285 278.27854805588055 L 1286 277.8794243956715 L 1287 277.48877828953243 L 1288 277.1066364189662 L 1289 276.7330248846282 L 1290 276.36796920454367 L 1291 276.01149431236485 L 1292 275.66362455566787 L 1293 275.32438369429 L 1294 274.99379489870677 L 1295 274.67188074844904 L 1296 274.3586632305614 L 1297 274.0541637380999 L 1298 273.7584030686713 L 1299 273.4714014230122 L 1300 273.1931784036097 L 1301 272.9237530133622 L 1302 272.6631436542816 L 1303 272.41136812623654 L 1304 272.16844362573636 L 1305 271.934386744757 L 1306 271.7092134696073 L 1307 271.4929391798373 L 1308 271.2855786471881 L 1309 271.0871460345825 L 1310 270.89765489515753 L 1311 270.7171181713396 L 1312 270.5455481939596 L 1313 270.382956681411 L 1314 270.2293547388498 L 1315 270.08475285743566 L 1316 269.94916091361534 L 1317 269.8225881684484 L 1318 269.7050432669745 L 1319 269.5965342376227 L 1320 269.49706849166364 L 1321 269.40665282270294 L 1322 269.32529340621727 L 1323 269.2529957991327 L 1324 269.1897649394448 L 1325 269.13560514588187 L 1326 269.0905201176097 L 1327 269.05451293397874 L 1328 269.02758605431416 L 1329 269.00974131774757 L 1330 269.0009799430916 L 1331 269.00130252875647 L 1332 269.0107090527092 L 1333 269.0291988724754 L 1334 269.05677072518256 L 1335 269.0934227276467 L 1336 269.1391523765012 L 1337 269.19395654836705 L 1338 269.257831500067 L 1339 269.3307728688807 L 1340 269.4127756728429 L 1341 269.5038343110836 L 1342 269.60394256421074 L 1343 269.7130935947348 L 1344 269.8312799475359 L 1345 269.9584935503732 L 1346 270.0947257144358 L 1347 270.2399671349366 L 1348 270.39420789174767 L 1349 270.5574374500777 L 1350 270.7296446611916 L 1351 270.9108177631722 L 1352 271.1009443817232 L 1353 271.30001153101466 L 1354 271.5080056145699 L 1355 271.724912426194 L 1356 271.9507171509441 L 1357 272.18540436614154 L 1358 272.42895804242494 L 1359 272.6813615448451 L 1360 272.94259763400146 L 1361 273.2126484672191 L 1362 273.49149559976775 L 1363 273.7791199861215 L 1364 274.07550198125955 L 1365 274.380621342008 L 1366 274.6944572284226 L 1367 275.0169882052121 L 1368 275.3481922432021 L 1369 275.68804672083996 L 1370 276.0365284257397 L 1371 276.39361355626755 L 1372 276.7592777231672 L 1373 277.1334959512264 L 1374 277.51624268098203 L 1375 277.9074917704663 L 1376 278.307216496992 L 1377 278.7153895589779 L 1378 279.1319830778134 L 1379 279.55696859976246 L 1380 279.99031709790734 L 1381 280.4319989741309 L 1382 280.8819840611386 L 1383 281.3402416245184 L 1384 281.8067403648402 L 1385 282.28144841979383 L 1386 282.7643333663648 L 1387 283.25536222304925 L 1388 283.7545014521065 L 1389 284.26171696184963 L 1390 284.7769741089741 L 1391 285.30023770092373 L 1392 285.8314719982946 L 1393 286.3706407172757 L 1394 286.9177070321279 L 1395 287.4726335776984 L 1396 288.0353824519731 L 1397 288.6059152186656 L 1398 289.1841929098419 L 1399 289.7701760285827 L 1400 290.36382455168 L 1401 290.9650979323718 L 1402 291.573955103111 L 1403 292.1903544783702 L 1404 292.8142539574823 L 1405 293.445610927516 L 1406 294.08438226618625 L 1407 294.7305243447993 L 1408 295.383993031233 L 1409 296.0447436929508 L 1410 296.7127312000504 L 1411 297.38790992834595 L 1412 298.0702337624843 L 1413 298.7596560990948 L 1414 299.45612984997206 L 1415 300.1596074452926 L 1416 300.8700408368636 L 1417 301.5873815014047 L 1418 302.3115804438621 L 1419 303.0425882007553 L 1420 303.7803548435551 L 1421 304.52482998209365 L 1422 305.2759627680068 L 1423 306.0337018982067 L 1424 306.79799561838564 L 1425 307.56879172655135 L 1426 308.34603757659215 L 1427 309.12968008187283 L 1428 309.91966571886064 L 1429 310.7159405307805 L 1430 311.51845013130094 L 1431 312.3271397082484 L 1432 313.1419540273512 L 1433 313.96283743601157 L 1434 314.7897338671074 L 1435 315.6225868428214 L 1436 316.4613394784982 L 1437 317.30593448653036 L 1438 318.1563141802708 L 1439 319.01242047797274 L 1440 319.87419490675705 L 1441 320.7415786066057 L 1442 321.61451233438214 L 1443 322.49293646787737 L 1444 323.37679100988265 L 1445 324.2660155922872 L 1446 325.16054948020115 L 1447 326.0603315761042 L 1448 326.96530042401827 L 1449 327.87539421370536 L 1450 328.79055078488847 L 1451 329.7107076314984 L 1452 330.6358019059422 L 1453 331.56577042339563 L 1454 332.50054966611935 L 1455 333.4400757877967 L 1456 334.3842846178947 L 1457 335.3331116660466 L 1458 336.28649212645735 L 1459 337.24436088232926 L 1460 338.20665251030994 L 1461 339.1733012849604 L 1462 340.14424118324456 L 1463 341.1194058890385 L 1464 342.0987287976594 L 1465 343.08214302041586 L 1466 344.06958138917554 L 1467 345.0609764609531 L 1468 346.0562605225165 L 1469 347.0553655950122 L 1470 348.0582234386079 L 1471 349.06476555715307 L 1472 350.0749232028581 L 1473 351.0886273809893 L 1474 352.1058088545814 L 1475 353.1263981491666 L 1476 354.1503255575196 L 1477 355.17752114441885 L 1478 356.2079147514226 L 1479 357.24143600166184 L 1480 358.2780143046463 L 1481 359.3175788610862 L 1482 360.3600586677275 L 1483 361.4053825222022 L 1484 362.4534790278908 L 1485 363.5042765987994 L 1486 364.557703464448 L 1487 365.6136876747741 L 1488 366.67215710504576 L 1489 367.7330394607882 L 1490 368.7962622827214 L 1491 369.8617529517094 L 1492 370.92943869372033 L 1493 371.99924658479597 L 1494 373.071103556034 L 1495 374.1449363985778 L 1496 375.2206717686168 L 1497 376.2982361923959 L 1498 377.3775560712341 L 1499 378.4585576865511 L 1500 379.5411672049019 L 1501 380.6253106830208 L 1502 381.710914072871 L 1503 382.7979032267022 L 1504 383.8862039021152 L 1505 384.97574176713266 L 1506 386.0664424052761 L 1507 387.15823132064804 L 1508 388.251033943021 L 1509 389.34477563293046 L 1510 390.4393816867725 L 1511 391.5347773419063 L 1512 392.6308877817606 L 1513 393.7276381409438 L 1514 394.8249535103565 L 1515 395.9227589423095 L 1516 397.0209794556413 L 1517 398.1195400408401 L 1518 399.2183656651669 L 1519 400.31738127778016 L 1520 401.41651181486225 L 1521 402.5156822047455 L 1522 403.6148173730407 L 1523 404.7138422477643 L 1524 405.8126817644658 L 1525 406.91126087135495 L 1526 408.00950453442755 L 1527 409.1073377425909 L 1528 410.20468551278606 L 1529 411.3014728951106 L 1530 412.3976249779369 L 1531 413.493066893029 L 1532 414.5877238206559 L 1533 415.68152099470217 L 1534 416.7743837077745 L 1535 417.86623731630357 L 1536 418.95700724564335 L 1537 420.0466189951641 L 1538 421.1349981433409 L 1539 422.2220703528364" stroke-linecap="round" stroke-linejoin="round" stroke-miterlimit="10" stroke-width="5"/></g></svg>